<?xml version="1.0" encoding="UTF-8" standalone="no"?>
<!DOCTYPE svg PUBLIC "-//W3C//DTD SVG 1.1//EN"
 "http://www.w3.org/Graphics/SVG/1.1/DTD/svg11.dtd">
<!-- Generated by graphviz version 9.0.0 (20230911.1827)
 -->
<!-- Title: 2 Pages: 1 -->
<svg width="170pt" height="118pt"
 viewBox="0.00 0.00 170.00 117.50" xmlns="http://www.w3.org/2000/svg" xmlns:xlink="http://www.w3.org/1999/xlink">
<g id="graph0" class="graph" transform="scale(1 1) rotate(0) translate(4 113.5)">
<title>2</title>
<polygon fill="white" stroke="none" points="-4,4 -4,-113.5 166,-113.5 166,4 -4,4"/>
<!-- 32 -->
<g id="node1" class="node">
<title>32</title>
<polygon fill="#ff7400" fill-opacity="0.533333" stroke="#03ff00" points="117,-67 45,-67 45,-42.5 117,-42.5 117,-67"/>
<text text-anchor="middle" x="81" y="-49.7" font-family="Times,serif" font-size="14.00">API 32</text>
</g>
<!-- 2 -->
<g id="node2" class="node">
<title>2</title>
<polygon fill="#fff700" fill-opacity="0.533333" stroke="#ff0000" points="117,-24.5 45,-24.5 45,0 117,0 117,-24.5"/>
<text text-anchor="middle" x="81" y="-7.2" font-family="Times,serif" font-size="14.00">API 2*</text>
</g>
<!-- 32&#45;&gt;2 -->
<g id="edge3" class="edge">
<title>32&#45;&gt;2</title>
<path fill="none" stroke="black" d="M81,-42.25C81,-40.39 81,-38.4 81,-36.37"/>
<polygon fill="black" stroke="black" points="84.5,-36.43 81,-26.43 77.5,-36.43 84.5,-36.43"/>
</g>
<!-- 26 -->
<g id="node3" class="node">
<title>26</title>
<polygon fill="#00ff00" fill-opacity="0.533333" stroke="#00ff00" points="72,-109.5 0,-109.5 0,-85 72,-85 72,-109.5"/>
<text text-anchor="middle" x="36" y="-92.2" font-family="Times,serif" font-size="14.00">API 26</text>
</g>
<!-- 26&#45;&gt;32 -->
<g id="edge1" class="edge">
<title>26&#45;&gt;32</title>
<path fill="none" stroke="black" d="M48.77,-84.75C52.17,-81.7 55.92,-78.32 59.64,-74.98"/>
<polygon fill="black" stroke="black" points="61.82,-77.72 66.91,-68.43 57.14,-72.52 61.82,-77.72"/>
</g>
<!-- 30 -->
<g id="node4" class="node">
<title>30</title>
<polygon fill="#1eff00" fill-opacity="0.533333" stroke="#00ff00" points="162,-109.5 90,-109.5 90,-85 162,-85 162,-109.5"/>
<text text-anchor="middle" x="126" y="-92.2" font-family="Times,serif" font-size="14.00">API 30</text>
</g>
<!-- 30&#45;&gt;32 -->
<g id="edge2" class="edge">
<title>30&#45;&gt;32</title>
<path fill="none" stroke="black" d="M113.23,-84.75C109.83,-81.7 106.08,-78.32 102.36,-74.98"/>
<polygon fill="black" stroke="black" points="104.86,-72.52 95.09,-68.43 100.18,-77.72 104.86,-72.52"/>
</g>
</g>
</svg>
